<svg width="44" height="47" viewBox="0 0 44 47" fill="none" xmlns="http://www.w3.org/2000/svg">
<path d="M36.1582 46.2089H8.18181L3.7052 4.75723H40.6348L36.1582 46.2089Z" fill="#BDD131"/>
<path d="M43.3416 0.101135H0.988953V4.75725H43.3416V0.101135Z" fill="#969F39"/>
<path d="M18.4127 21.2378C19.8323 19.415 22.1321 18.6972 24.2427 19.1978L23.883 20.6995L28.8707 18.4422L25.3973 14.4L24.9336 16.3172C21.7252 15.5428 18.2139 16.6478 16.0561 19.415C15.6491 19.9345 15.3179 20.4822 15.0529 21.0489L17.4946 22.9472C17.7029 22.3428 18.0057 21.7667 18.4127 21.2378Z" fill="white"/>
<path d="M22.1322 30.3422C19.8418 30.0306 18.0625 28.3967 17.4473 26.3283L18.9332 25.8939L14.4755 22.7111L12.7625 27.7072L14.5891 27.1689C15.5261 30.3233 18.2329 32.8072 21.7157 33.2889C22.3688 33.3833 23.0123 33.3928 23.637 33.3361L24.0629 30.2761C23.4477 30.4083 22.7947 30.4367 22.1322 30.3422Z" fill="white"/>
<path d="M30.934 21.4644C30.6879 20.86 30.3756 20.2933 30.0159 19.7739L27.1483 20.9355C27.5741 21.4077 27.9243 21.9555 28.1799 22.5789C29.0506 24.7133 28.53 27.0649 27.0347 28.6327L25.9084 27.5655L25.3784 33.0055L30.4608 31.8816L29.1925 30.6727C31.464 28.2927 32.259 24.7133 30.934 21.4644Z" fill="white"/>
</svg>
