<svg width="40" height="40" viewBox="0 0 40 40" fill="none" xmlns="http://www.w3.org/2000/svg">
<g clip-path="url(#clip0)">
<path d="M20.2081 9.58412L20.211 9.5838C26.0211 8.94485 29.9028 6.78126 32.3414 4.7501C33.5577 3.73697 34.4101 2.76103 34.9625 2.03197C35.2209 1.69091 35.4138 1.40377 35.5477 1.19195H35.5777L35.7621 0.837468C39.4585 13.4063 37.3876 21.8983 33.2852 26.8561L33.2836 26.8581C31.6906 28.7964 29.6503 30.3184 27.3383 31.2931L27.3369 31.2938C25.2123 32.1948 22.9062 32.5858 20.6034 32.4354C16.2002 32.1272 12.2438 29.7862 10.4113 25.6472L10.411 25.6467C9.93935 24.5837 9.63453 23.4543 9.50742 22.2984L9.50734 22.2977C9.24995 19.9783 9.7027 17.6354 10.8058 15.5789C11.9878 13.3895 13.8695 11.6594 16.1505 10.6653L16.1532 10.6641C17.441 10.0968 18.8088 9.73248 20.2081 9.58412Z" fill="#45B549" stroke="black" stroke-width="1.5"/>
<path d="M35.0426 0.71006C35.0525 0.308335 35.3861 -0.00942656 35.7878 0.000469134C36.1896 0.0103648 36.5073 0.34402 36.4974 0.745745C36.4967 0.775332 36.4941 0.804719 36.4898 0.834006C36.4898 0.869991 35.8541 9.23035 27.6937 17.6907L27.6177 17.7706C25.7005 19.7371 23.5968 21.5126 21.3364 23.0723L26.2383 23.9839C26.629 24.0782 26.8693 24.4713 26.7751 24.8619C26.6897 25.2156 26.3563 25.4519 25.9944 25.4153L19.5972 24.2158C13.7637 27.9102 3.87602 31.3207 3.0124 39.3692C2.95892 39.7676 2.59268 40.0471 2.19435 39.9937C1.81522 39.9428 1.54024 39.607 1.56503 39.2253C2.59658 29.5775 12.4003 27.0946 19.0134 22.8764L19.1054 22.8164C21.7446 21.1462 24.1893 19.1869 26.3942 16.975L25.8145 11.2375C25.761 10.8392 26.0406 10.4729 26.4389 10.4194C26.8372 10.366 27.2035 10.6455 27.257 11.0439C27.2592 11.0604 27.2609 11.0769 27.2619 11.0935L27.7017 15.5476C34.5028 7.91093 35.0386 0.742046 35.0426 0.71006Z" fill="black"/>
</g>
<defs>
<clipPath id="clip0">
<rect width="40" height="40" fill="white"/>
</clipPath>
</defs>
</svg>
