<svg width="40" height="40" viewBox="0 0 40 40" fill="none" xmlns="http://www.w3.org/2000/svg">
<path d="M38.4375 18H1.5625C0.699531 18 0 18.8954 0 20C0 21.1046 0.699531 22 1.5625 22H38.4375C39.3005 22 40 21.1046 40 20C40 18.8954 39.3005 18 38.4375 18Z" fill="black"/>
<path d="M38.4375 5.9375H1.5625C0.699531 5.9375 0 6.8329 0 7.9375C0 9.0421 0.699531 9.9375 1.5625 9.9375H38.4375C39.3005 9.9375 40 9.0421 40 7.9375C40 6.8329 39.3005 5.9375 38.4375 5.9375Z" fill="black"/>
<path d="M38.4375 30.9375H1.5625C0.699531 30.9375 0 31.8329 0 32.9375C0 34.0421 0.699531 34.9375 1.5625 34.9375H38.4375C39.3005 34.9375 40 34.0421 40 32.9375C40 31.8329 39.3005 30.9375 38.4375 30.9375Z" fill="black"/>
</svg>
