<svg width="34" height="34" viewBox="0 0 34 34" fill="none" xmlns="http://www.w3.org/2000/svg">
<g clip-path="url(#clip0)">
<path d="M13.8851 17.0278L0.646149 3.78851C-0.21542 2.92734 -0.21542 1.53496 0.646149 0.673796C1.50731 -0.187367 2.89969 -0.187367 3.76086 0.673796L17.0002 13.9131L30.2391 0.673796C31.1007 -0.187367 32.4927 -0.187367 33.3538 0.673796C34.2154 1.53496 34.2154 2.92734 33.3538 3.78851L20.1149 17.0278L33.3538 30.2672C34.2154 31.1283 34.2154 32.5207 33.3538 33.3819C32.9247 33.8114 32.3604 34.0272 31.7965 34.0272C31.2326 34.0272 30.6687 33.8114 30.2391 33.3819L17.0002 20.1425L3.76086 33.3819C3.33128 33.8114 2.76739 34.0272 2.2035 34.0272C1.63961 34.0272 1.07572 33.8114 0.646149 33.3819C-0.21542 32.5207 -0.21542 31.1283 0.646149 30.2672L13.8851 17.0278Z" fill="black"/>
</g>
<defs>
<clipPath id="clip0">
<rect width="34" height="34" fill="white" transform="matrix(-1 0 0 1 34 0)"/>
</clipPath>
</defs>
</svg>
