<svg width="40" height="40" viewBox="0 0 40 40" fill="none" xmlns="http://www.w3.org/2000/svg">
<g clip-path="url(#clip0)">
<path d="M37.87 0.53895C37.8123 0.343152 37.6686 0.178413 37.4735 0.0846357C37.0886 -0.103322 36.6114 0.032269 36.4076 0.387478L36.4061 0.390192C36.4061 0.410294 32.4108 7.56272 20.1462 8.80907C18.5464 8.96657 16.9826 9.35174 15.5105 9.95089C12.8756 11.008 10.6995 12.8477 9.32813 15.1775C8.04786 17.366 7.51763 19.8615 7.80758 22.334C8.02118 24.1363 8.67351 25.8709 9.71589 27.4078C7.53745 28.8512 0.627458 33.8406 0.00442541 39.1958C-0.0413217 39.5955 0.272809 39.9537 0.705881 39.9959C1.13906 40.0381 1.52715 39.7483 1.5729 39.3486C2.14365 34.5683 8.62667 29.9327 10.6483 28.5898C13.075 31.3398 16.7087 32.8917 20.6081 33.145C23.2325 33.3013 25.8602 32.8883 28.2805 31.9389C30.9079 30.9216 33.2284 29.3308 35.0424 27.3033C39.7173 22.0766 41.9437 13.2919 37.87 0.53895ZM11.1014 26.6881C10.8007 26.2512 10.5357 25.7943 10.3084 25.3212C9.83004 24.3228 9.52146 23.2624 9.39348 22.1772C9.12662 19.9996 9.58235 17.7985 10.7005 15.865C11.9091 13.8152 13.8263 12.1975 16.1466 11.2696C17.4732 10.7366 18.8811 10.3963 20.3205 10.2605C28.4156 9.45637 33.1776 6.13143 35.6349 3.71915C34.1912 8.10539 31.7054 12.1393 28.3589 15.5273L27.8797 11.0726C27.8553 10.6714 27.483 10.3643 27.0482 10.3868C26.6134 10.4093 26.2806 10.7529 26.305 11.1541C26.3062 11.1739 26.3083 11.1937 26.3112 11.2133L26.9255 16.9385C23.2614 20.3679 18.1682 23.8135 11.1014 26.6881ZM33.8225 26.3705V26.3745C32.1742 28.2263 30.063 29.6806 27.6705 30.6121C25.4704 31.4701 23.0825 31.8392 20.6996 31.6896C17.3821 31.5345 14.269 30.1639 12.0512 27.8822C14.6503 26.8209 17.1633 25.5888 19.5711 24.1954L26.4942 25.4016C26.9244 25.4638 27.3279 25.1923 27.3953 24.7953C27.4603 24.4123 27.1886 24.0495 26.7774 23.9703L21.4577 23.0416C23.9139 21.4848 26.2004 19.7115 28.2849 17.7466C28.3231 17.7162 28.3581 17.6826 28.3894 17.6461C33.8878 12.3632 36.2274 7.13655 37.2034 3.92017C39.8959 14.5181 37.8351 21.8917 33.8225 26.3705Z" fill="black"/>
</g>
<defs>
<clipPath id="clip0">
<rect width="40" height="40" fill="white"/>
</clipPath>
</defs>
</svg>
