<svg width="40" height="40" viewBox="0 0 40 40" fill="none" xmlns="http://www.w3.org/2000/svg">
<path d="M36.0365 0.0250244C35.995 0.0216675 35.9599 0 35.9166 0H18C15.2433 0 13 2.24335 13 5V6.66656C13 7.58667 13.7465 8.33344 14.6666 8.33344C15.5867 8.33344 16.3331 7.58667 16.3331 6.66656V5C16.3331 4.08173 17.0814 3.33344 18 3.33344H25.7649L25.2565 3.50342C23.9067 3.97003 23 5.2417 23 6.66656V31.6666H18C17.0814 31.6666 16.3331 30.9183 16.3331 30V26.6666C16.3331 25.7468 15.5867 25 14.6666 25C13.7465 25 13 25.7468 13 26.6666V30C13 32.7567 15.2433 35 18 35H23V36.6666C23 38.5049 24.4947 40 26.3331 40C26.6899 40 27.0283 39.9484 27.3948 39.8349L37.4083 36.4966C38.7599 36.03 39.6666 34.7583 39.6666 33.3334V3.33344C39.6666 1.39008 37.9915 -0.133362 36.0365 0.0250244Z" fill="black"/>
<path d="M17.8448 15.4883L11.1783 8.8217C10.7016 8.34502 9.98505 8.20159 9.36157 8.46007C8.73993 8.71825 8.33344 9.32677 8.33344 9.99999V15H1.66656C0.746765 15 0 15.7468 0 16.6666C0 17.5867 0.746765 18.3334 1.66656 18.3334H8.33344V23.3334C8.33344 24.0066 8.73993 24.6149 9.36157 24.8733C9.98505 25.1315 10.7016 24.9884 11.1783 24.5117L17.8448 17.8448C18.4967 17.1933 18.4967 16.1401 17.8448 15.4883Z" fill="black"/>
</svg>
