<svg width="81" height="81" viewBox="0 0 81 81" fill="none" xmlns="http://www.w3.org/2000/svg">
<path d="M75.5667 21.1616C71.9451 14.9564 67.0326 10.0438 60.828 6.42256C54.6224 2.80115 47.8478 0.990906 40.4994 0.990906C33.1518 0.990906 26.375 2.8017 20.1707 6.42256C13.9655 10.0436 9.05326 14.9564 5.43166 21.1616C1.81061 27.3666 0 34.1425 0 41.4891C0 50.3141 2.57472 58.2498 7.72545 65.2981C12.8756 72.347 19.5289 77.2245 27.6847 79.9313C28.634 80.1075 29.3368 79.9836 29.7938 79.5627C30.2509 79.1412 30.4792 78.6133 30.4792 77.9812C30.4792 77.8758 30.4701 76.927 30.4526 75.1337C30.4345 73.3405 30.426 71.7761 30.426 70.4412L29.2131 70.6511C28.4397 70.7927 27.4642 70.8528 26.2863 70.8358C25.109 70.8193 23.8869 70.6959 22.6215 70.4665C21.3556 70.2392 20.1781 69.7119 19.0882 68.8857C17.9988 68.0595 17.2255 66.9781 16.7684 65.6431L16.241 64.4296C15.8896 63.6217 15.3362 62.7243 14.5802 61.7406C13.8242 60.7559 13.0598 60.0884 12.2864 59.737L11.9172 59.4726C11.6712 59.297 11.4429 59.0851 11.2318 58.8393C11.0209 58.5935 10.8629 58.3475 10.7575 58.1011C10.6518 57.8545 10.7394 57.6522 11.021 57.4936C11.3027 57.3349 11.8117 57.2579 12.5504 57.2579L13.6046 57.4155C14.3078 57.5564 15.1775 57.9773 16.215 58.6808C17.2519 59.3838 18.1043 60.2977 18.7724 61.4222C19.5813 62.8639 20.556 63.9625 21.6991 64.7185C22.8413 65.4745 23.9929 65.8518 25.1528 65.8518C26.3127 65.8518 27.3145 65.7639 28.1586 65.589C29.0018 65.4132 29.7928 65.1488 30.5315 64.7975C30.8479 62.4411 31.7093 60.6309 33.115 59.3655C31.1114 59.155 29.31 58.8378 27.71 58.4162C26.1109 57.9939 24.4583 57.3087 22.7536 56.3586C21.0479 55.4098 19.6329 54.2316 18.5082 52.826C17.3834 51.4197 16.4603 49.5735 15.7401 47.2889C15.0196 45.0034 14.6593 42.367 14.6593 39.3789C14.6593 35.1244 16.0482 31.5039 18.8255 28.5154C17.5245 25.3168 17.6473 21.7311 19.1944 17.7585C20.2139 17.4418 21.7259 17.6795 23.7295 18.4702C25.7335 19.2612 27.2008 19.9389 28.1328 20.5008C29.0648 21.0624 29.8115 21.5384 30.3741 21.9244C33.6442 21.0107 37.0189 20.5538 40.499 20.5538C43.9791 20.5538 47.3545 21.0107 50.6248 21.9244L52.6286 20.6594C53.9989 19.8153 55.6171 19.0418 57.4792 18.3387C59.3424 17.6359 60.7672 17.4423 61.752 17.7591C63.3334 21.7318 63.4744 25.3174 62.173 28.516C64.9501 31.5045 66.3396 35.1259 66.3396 39.3795C66.3396 42.3676 65.978 45.0123 65.2586 47.3153C64.5382 49.6187 63.6072 51.4631 62.465 52.8524C61.3215 54.2416 59.8975 55.4105 58.1927 56.3592C56.4875 57.3085 54.8345 57.9938 53.2353 58.416C51.6355 58.8382 49.8341 59.1555 47.8305 59.3664C49.6579 60.9478 50.5718 63.4441 50.5718 66.854V77.9798C50.5718 78.6118 50.7916 79.1395 51.2315 79.5612C51.6709 79.9821 52.3649 80.106 53.3142 79.9296C61.4711 77.2232 68.1244 72.3455 73.2744 65.2966C78.4238 58.2483 80.9994 50.3126 80.9994 41.4877C80.9976 34.142 79.1861 27.3666 75.5667 21.1616Z" fill="black"/>
</svg>
