<svg width="40" height="40" viewBox="0 0 40 40" fill="none" xmlns="http://www.w3.org/2000/svg">
<path d="M11.5378 13.583C13.48 11.028 16.5504 9.375 20.0001 9.375C22.8381 9.375 25.5063 10.4802 27.5132 12.487L28.3417 13.3155L34.9709 6.68648L34.1423 5.85789C30.3648 2.08039 25.3424 0 20.0001 0C14.6579 0 9.6355 2.08039 5.85792 5.85781C5.51503 6.20078 5.18651 6.55422 4.87183 6.91695L11.5378 13.583Z" fill="black"/>
<path d="M33.083 35.1284C33.4457 34.8137 33.7992 34.4852 34.1422 34.1423C37.9196 30.3647 40 25.3423 40 20.0001C40 18.7833 39.8898 17.5642 39.6725 16.3769L39.4966 15.416H18.8281V24.791H29.4884C28.7512 26.2577 27.6966 27.5081 26.426 28.4714L33.083 35.1284Z" fill="black"/>
<path d="M24.344 29.7037C23.0088 30.2993 21.5357 30.625 20.0001 30.625C16.5504 30.625 13.48 28.972 11.5378 26.417L4.87183 33.0829C5.18651 33.4457 5.51503 33.7992 5.85792 34.1421C9.6355 37.9196 14.6579 40 20.0001 40C24.056 40 27.927 38.7997 31.2094 36.5691L24.344 29.7037Z" fill="black"/>
<path d="M10.3018 24.3384C9.70656 23.013 9.375 21.5446 9.375 20.0001C9.375 18.4555 9.70656 16.9871 10.3018 15.6617L3.43086 8.79077C1.20023 12.0732 0 15.9441 0 20.0001C0 24.056 1.20023 27.9269 3.43086 31.2094L10.3018 24.3384Z" fill="black"/>
</svg>
