<svg width="40" height="40" viewBox="0 0 40 40" fill="none" xmlns="http://www.w3.org/2000/svg">
<path d="M0 0V40H40V0H0ZM32.0665 22.195C33.0315 23.1905 34.0647 24.1219 34.9992 25.1446C35.6784 25.8886 36.307 26.6958 36.8452 27.5455C37.526 28.6203 37.1055 29.6326 35.8338 29.8128C35.0337 29.9257 31.1256 29.8137 30.9237 29.8128C29.873 29.8081 28.952 29.4436 28.2103 28.7301C27.3855 27.9356 26.6358 27.0643 25.8438 26.2354C25.6051 25.9855 25.3504 25.7461 25.0758 25.537C24.4278 25.0428 23.7919 25.1526 23.4892 25.9134C23.2305 26.567 23.0071 28.2833 22.9966 28.4298C22.9422 29.1962 22.4545 29.6847 21.5959 29.7319C19.1172 29.8665 16.7154 29.5902 14.4778 28.3913C12.5814 27.3758 11.067 25.9399 9.75514 24.2653C7.67128 21.6055 6.02531 18.6817 4.52258 15.6721C4.44578 15.5183 2.92374 12.2795 2.88284 12.1265C2.74688 11.6143 2.87371 11.125 3.30651 10.9566C3.57632 10.8515 8.59454 10.9562 8.67801 10.9607C9.47875 11.0039 10.0249 11.3418 10.3621 12.173C11.3207 14.5403 12.5356 16.7724 14.1358 18.7761C14.348 19.0428 14.6156 19.2798 14.8974 19.4728C15.309 19.7555 15.6974 19.6562 15.8648 19.1853C16.0418 18.6911 16.2043 17.6896 16.214 17.1707C16.2404 15.8149 16.21 14.9263 16.1371 13.572C16.0899 12.7047 15.7816 11.9431 14.5058 11.7132C14.1117 11.642 14.0751 11.3176 14.3283 10.9941C14.8553 10.3206 15.5894 10.2132 16.3855 10.1707C17.6757 10.101 18.9707 10.1579 20.2625 10.1707C20.7887 10.1756 21.318 10.218 21.8362 10.3309C22.5121 10.4783 22.8741 10.9524 22.9855 11.6123C23.0432 11.9527 23.0728 12.3026 23.0647 12.647C23.0311 14.127 22.9599 15.6062 22.943 17.0854C22.9358 17.666 22.9782 18.2611 23.1024 18.8265C23.2762 19.6146 23.8127 19.8124 24.3614 19.243C25.0581 18.5198 25.6724 17.7061 26.249 16.8797C27.2965 15.3764 28.0789 13.7267 28.7525 12.0257C29.1009 11.148 29.3676 10.9573 30.3117 10.955C32.0865 10.9509 33.8612 10.9494 35.6359 10.955C35.9507 10.9566 36.2798 10.9862 36.5769 11.0807C37.0591 11.2344 37.2505 11.6276 37.1375 12.1266C36.874 13.2959 36.2422 14.2897 35.5655 15.2452C34.4795 16.7781 33.3414 18.2741 32.2299 19.7893C32.0881 19.9823 31.9632 20.1881 31.847 20.3972C31.4314 21.1483 31.4602 21.5695 32.0665 22.195Z" fill="black"/>
</svg>
