<svg height="512" viewBox="0 0 38 58" width="512" xmlns="http://www.w3.org/2000/svg"><g id="Page-1" fill="none" fill-rule="evenodd"><g id="005---Batteries" fill-rule="nonzero"><path id="Shape" d="m27.02 4.46-1.02-2.55h-.01c-.0004316-.04180165-.0107095-.08291308-.03-.12-.35-1-3.33-1.79-6.96-1.79s-6.61.79-6.96 1.79c-.0192905.03708692-.0295684.07819835-.03.12l-1.03 2.55c-6.49.8-10.98 2.54-10.98 4.54v44c0 2.76 8.51 5 19 5s19-2.24 19-5v-44c0-2-4.49-3.74-10.98-4.54z" fill="#3f5c6c"/><path id="Shape" d="m38 9c0 2.76-8.51 5-19 5s-19-2.24-19-5c0-2 4.49-3.74 10.98-4.54l-.92 2.29c-.0497635.09555049-.06051798.20668033-.03.31.35 1.08 4.24 1.94 8.97 1.94s8.62-.86 8.97-1.94c.030518-.10331967.0197635-.21444951-.03-.31l-.92-2.29c6.49.8 10.98 2.54 10.98 4.54z" fill="#e57e25"/><path id="Shape" d="m38 23v5c0 2.76-8.51 5-19 5s-19-2.24-19-5v-5c0 2.76 8.51 5 19 5s19-2.24 19-5z" fill="#67b9cc"/><path id="Shape" d="m38 9v14c0 2.76-8.51 5-19 5s-19-2.24-19-5v-14c0 2.76 8.51 5 19 5s19-2.24 19-5z" fill="#f29c1f"/><path id="Shape" d="m22 20h-2v-2c0-.5522847-.4477153-1-1-1s-1 .4477153-1 1v2h-2c-.5522847 0-1 .4477153-1 1s.4477153 1 1 1h2v2c0 .5522847.4477153 1 1 1s1-.4477153 1-1v-2h2c.5522847 0 1-.4477153 1-1s-.4477153-1-1-1z" fill="#d25627"/><path id="Shape" d="m26 2c0 1.11-3.12 2-6.99 2h-.01c-3.87 0-7-.89-7-2-.0016261-.03034543.0017524-.06075164.01-.09.0004316-.04180165.0107095-.08291308.03-.12.35-1 3.33-1.79 6.96-1.79s6.61.79 6.96 1.79c.0192905.03708692.0295684.07819835.03.12.0082476.02924836.0116261.05965457.01.09z" fill="#bdc3c7"/><path id="Shape" d="m27.97 7.06c-.35 1.08-4.24 1.94-8.97 1.94s-8.62-.86-8.97-1.94c-.03051798-.10331967-.0197635-.21444951.03-.31l.92-2.29 1.03-2.55c-.0082476.02924836-.0116261.05965457-.01.09 0 1.11 3.13 2 7 2h.01c3.87 0 6.99-.89 6.99-2 .0016261-.03034543-.0017524-.06075164-.01-.09h.01l1.02 2.55.92 2.29c.0497635.09555049.060518.20668033.03.31z" fill="#7f8c8d"/><g fill="#fff"><path id="Shape" d="m11.065 54.512c-.0437822-.0002051-.0875182-.002876-.131-.008-2.53431881-.252739-5.01928683-.8676668-7.379-1.826-.33982884-.168865-.55479864-.515528-.555-.895v-9.783c0-.5522847.44771525-1 1-1s1 .4477153 1 1v9.129c2.0061863.6939197 4.08381755 1.1608333 6.194 1.392.5206207.070279.8980968.5314238.8641303 1.0556674-.0339666.5242436-.4677935.9328228-.9931303.9353326z"/><path id="Shape" d="m4 39c-.55228475 0-1-.4477153-1-1v-2c0-.5522847.44771525-1 1-1s1 .4477153 1 1v2c0 .5522847-.44771525 1-1 1z"/></g></g></g></svg>