<svg width="120" height="120" viewBox="0 0 120 120" fill="none" xmlns="http://www.w3.org/2000/svg">
<g clip-path="url(#clip0)">
<path d="M60 0C44.4828 0 31.9212 12.5616 31.9212 28.0788C31.9212 43.5961 44.4828 56.1576 60 56.1576C75.5172 56.1576 88.0788 43.5961 88.0788 28.0788C88.0788 12.5616 75.5172 0 60 0Z" fill="black"/>
<path d="M70.936 59.4089H49.064C27.0443 59.4089 9.16257 77.2906 9.16257 99.3103V115.567C9.16257 118.079 11.0837 120 13.5961 120H106.404C108.916 120 110.837 118.079 110.837 115.567V99.3103C110.837 77.2906 92.9557 59.4089 70.936 59.4089Z" fill="black"/>
</g>
<defs>
<clipPath id="clip0">
<rect width="120" height="120" fill="white"/>
</clipPath>
</defs>
</svg>
